<?xml version="1.0" encoding="UTF-8"?>
<svg xmlns="http://www.w3.org/2000/svg" id="Layer_1" data-name="Layer 1" viewBox="0 0 24 24">
  <path d="M12,5c.552,0,1,.448,1,1s-.448,1-1,1-1-.448-1-1,.448-1,1-1Zm10.595,4.888l-6.086,3.139-3.166-3.236c-.9-.901-2.317-1.05-3.293-.346-1.242,.846-1.404,2.767-.325,3.799l5.514,5.756h-2.739c-1.378,0-2.5,1.121-2.5,2.5s1.122,2.5,2.5,2.5h8.5l-1-1h-7.5c-.827,0-1.5-.673-1.5-1.5s.673-1.5,1.5-1.5h5.082l-7.142-7.456c-.652-.627-.559-1.776,.195-2.288,.584-.42,1.443-.316,1.998,.238l3.679,3.759,6.094-3.142,1.595,1.595v-1.414l-1.405-1.405Zm-12.694,8.112h-2.901v-2.163l-2.065-2.065-1.864,1.863-.707-.707,1.864-1.863-2.065-2.065H0v-2.901c1.402-2.024,3.668-3.042,6.793-3.091C9.766,2.518,13.022,1.206,16.134,.084c1.061-.427,2.209,.72,1.782,1.782-.792,2.196-1.69,4.461-3.022,6.65-.23-.244-.488-.474-.759-.661,1.238-2.078,2.086-4.236,2.84-6.328,.068-.385-.116-.572-.502-.502-3.483,1.256-7.148,2.747-10.32,5.919-1.256,1.256-2.382,3.085-2.812,3.82l3.895,3.895c.181-.106,.431-.255,.72-.438,.167,.248,.453,.547,.665,.762-.235,.15-.44,.275-.622,.384v1.632h1.575c.188-.142,.367-.297,.54-.458l.693,.723c-.245,.23-.906,.735-.906,.735ZM1,10h1.63c.546-.908,1.716-2.739,2.982-3.917-2.062,.231-3.586,.998-4.612,2.343v1.574Z"/>
</svg>
